PathFileType	4	(X/Y/Z)	RBDS027\RBDS027runT35.trc
DataRate	CameraRate	NumFrames	NumMarkers	Units	OrigDataRate	OrigDataStartFrame	OrigNumFrames
150.000000	150.000000	6	33	mm	150.000000	562	4500
Frame#	Time	L.ASIS			L.Heel.Bottom			L.Heel.Lateral			L.Heel.Top			L.Iliac.Crest			L.MT1			L.MT5			L.PSIS			L.Shank.Bottom.Lateral			L.Shank.Bottom.Medial			L.Shank.Top.Lateral			L.Shank.Top.Medial			L.Thigh.Bottom.Lateral			L.Thigh.Bottom.Medial			L.Thigh.Top.Lateral			L.Thigh.Top.Medial			R.ASIS			R.ASY			R.Heel.Bottom			R.Heel.Lateral			R.Heel.Top			R.Iliac.Crest			R.MT1			R.MT5			R.PSIS			R.Shank.Bottom.Lateral			R.Shank.Bottom.Medial			R.Shank.Top.Lateral			R.Shank.Top.Medial			R.Thigh.Bottom.Lateral			R.Thigh.Bottom.Medial			R.Thigh.Top.Lateral			R.Thigh.Top.Medial			
		X1	Y1	Z1	X2	Y2	Z2	X3	Y3	Z3	X4	Y4	Z4	X5	Y5	Z5	X6	Y6	Z6	X7	Y7	Z7	X8	Y8	Z8	X9	Y9	Z9	X10	Y10	Z10	X11	Y11	Z11	X12	Y12	Z12	X13	Y13	Z13	X14	Y14	Z14	X15	Y15	Z15	X16	Y16	Z16	X17	Y17	Z17	X18	Y18	Z18	X19	Y19	Z19	X20	Y20	Z20	X21	Y21	Z21	X22	Y22	Z22	X23	Y23	Z23	X24	Y24	Z24	X25	Y25	Z25	X26	Y26	Z26	X27	Y27	Z27	X28	Y28	Z28	X29	Y29	Z29	X30	Y30	Z30	X31	Y31	Z31	X32	Y32	Z32	X33	Y33	Z33	

563	3.746666666666667	2105.871190474727	836.2551740434759	884.1575774109798	1884.698927620875	28.72564137985393	1014.073781576148	1915.557989213595	50.18873466135764	969.6725219140752	1903.598436852881	75.29783504635481	1018.937473967297	2052.769695523732	900.2326349230258	863.5563034894042	2105.457691130178	29.78313480569251	1044.948894635835	2061.056407033401	35.80243676558625	935.7819610109223	1958.611192485748	861.9785485272271	995.788576877851	1993.315275169061	131.9846216734371	943.1748906781465	1961.051065142679	157.4907606097411	980.9879693635601	2012.285402238294	204.9580374421923	913.5382710595536	1986.598837830645	229.8226676727131	954.0471517492368	2105.711862632572	487.2785486226518	850.9718738667713	2061.107660066537	467.6449754212065	903.4170358845022	2051.388271057386	582.47475975905	843.947947929479	2010.414261049314	565.4885276751558	895.3907317984271	2145.206943997148	818.464161779745	1143.78069936176	1792.012647239725	350.4481194960469	1100.461148660735	1789.435336112077	537.8735557740924	1068.456973068672	1796.744137632755	508.7963784120632	1115.136329209205	1828.570161749958	514.7304839177137	1071.406840118963	2106.816304441675	907.8662407944917	1168.134024712261	1732.171007864129	326.868100689802	1051.321829558781	1741.999811609843	373.2160945363171	1159.650292740703	1979.122221310694	855.4603434228923	1087.298253513645	1889.410355755618	456.9301931020683	1132.578684100018	1900.455826207309	484.1987675038093	1091.219615553745	1972.012186258504	454.1442618656103	1151.467246042725	1979.733291214773	484.2915005682506	1108.265038901769	2164.618573104267	457.6234216364297	1186.489302851414	2121.453264627343	450.0665536178537	1129.245824181851	2111.804797245868	552.8526426970171	1199.029031084438	2061.771494760744	532.8029726617422	1155.114515768847	
564	3.753333333333333	2104.754375280664	836.147495533102	883.3733355133762	1861.158472805079	30.21423710115101	1014.371825861168	1892.112568774855	51.44144332139368	969.8736154115074	1880.288388677829	76.7166560150708	1019.100684574251	2052.736042371293	901.1405019888144	862.2052294833118	2081.869833296064	29.41344334443569	1045.305319311338	2037.435019234984	35.77588196690738	936.3074731020729	1957.630042883156	863.3152499750195	994.671804798177	1971.920857991294	132.8632554456207	943.5446918580789	1940.207548839761	159.2552063889231	981.1426041284648	1992.838245117011	205.1865817676728	913.8847229107986	1967.590015347757	230.8455639861008	954.1468193073993	2094.045634645463	485.1101317489651	851.5461085137571	2048.725123185726	467.1789226347836	903.9408893322299	2043.074361319098	582.172432654197	844.3436188949423	2001.698986369017	566.8378511248485	895.9202733402608	2143.975282140114	819.9049763779592	1143.484013630776	1810.665911306468	339.1212178980793	1102.266354012908	1797.489054903251	525.5514925472372	1068.389373168424	1807.160649398681	497.6851982050847	1115.422642568514	1837.882203812859	504.6520300374746	1070.947630658301	2103.375116016292	909.1769529374125	1168.219973694615	1751.374068742067	311.7227578426399	1054.604616517326	1760.639358190022	359.7329422702677	1162.087806936805	1978.020766463321	856.7005068038468	1086.165712189773	1902.190820450073	450.021218670791	1132.860121363377	1911.963262330007	477.8096080911159	1091.479235644082	1984.769428056527	451.0955463368896	1151.788957256951	1991.071646218109	481.525552442909	1108.57457436155	2176.972626524207	463.4634350490829	1187.169174963151	2134.645119666965	453.5898126160207	1129.964296391857	2119.642236332631	556.0950182785012	1199.187422776606	2070.601458163452	533.6250947066243	1155.328947889012	
565	3.76	2103.826395867087	836.6297110321669	882.3488315335226	1837.564803681097	32.1994993361251	1014.60850822251	1868.665888032277	53.09870891547574	970.0070215176232	1857.030232275124	78.62342130999006	1019.163802966659	2052.802736824948	902.5552814079407	860.7106109277445	2058.225384630858	28.98565455738783	1045.733614824273	2013.822734915357	35.77881320748981	936.8532606714612	1956.959380131858	865.1954886812605	993.5437015559667	1950.407381685397	134.1498860778521	943.9996332673121	1919.148496816174	161.3011680974281	981.351890526652	1973.077493146096	205.8569088444752	914.3566301350762	1948.176255179165	232.1971925471757	954.3878258184915	2081.972128505145	483.6854484113803	852.3778219351718	2035.845241753085	467.6167793795444	904.6147922469677	2034.607834181876	582.598859652647	844.79360858088	1992.776998624938	569.0745597843578	896.4554911901864	2143.175631695601	821.827500524269	1142.875133653434	1829.681403550821	326.8915039235067	1103.748807563498	1804.88876882546	511.5885725915203	1068.202140979177	1816.912147282067	485.0775478660623	1115.509302457415	1846.525310619123	493.2814801543565	1070.399237806744	2100.857520603772	910.9054177500886	1168.046092607289	1771.532690758382	295.4365889672526	1057.385238706542	1779.484171989561	344.9782153642529	1164.107079342716	1977.303751377371	858.5325907975041	1085.071425945373	1914.426106294364	442.2877393590779	1132.955936172308	1922.766748194087	470.6520904552021	1091.614095754571	1996.74759831811	447.702590516066	1152.036573514383	2001.467525942018	478.4451040393026	1108.8600896124	2188.669528146712	470.3745630449579	1187.574274831035	2147.084638676222	457.8549548708598	1130.615600953709	2127.205627049012	560.3397337432001	1199.080768966857	2079.198623795231	535.6954378680675	1155.286805112206	
566	3.766666666666667	2103.117478800735	837.7061952448721	881.0900894790842	1813.998748549288	34.84820030534379	1014.772795382646	1845.301351581252	55.29510996336887	970.0569408537032	1833.927546193765	81.16474838953104	1019.106409167738	2053.017840681455	904.447514484954	859.1326143284676	2034.531162199498	28.56408994003179	1046.189130775243	1990.247843480719	35.86129435090848	937.370239598801	1956.614021298995	867.5935588252991	992.4213379476627	1928.87656072379	135.979036786963	944.4899363957419	1897.965338625585	163.7813715486951	981.5706839865462	1953.119667496369	207.1217512745823	914.8934514650175	1928.480066774555	234.0412173092104	954.7197874731387	2069.625991856814	483.120445169501	853.4173647022413	2022.662685507011	469.0755935468731	905.4263546357649	2026.098702066628	583.8226147309512	845.2711352706708	1983.800298636141	572.256745816172	896.986084699839	2142.812206266787	824.2500031986679	1141.952313178301	1849.152424876394	313.9132522980719	1104.879323301344	1811.92798142246	495.996084739761	1067.908755434734	1826.229850659766	470.9733052482761	1115.403483629705	1854.729350501899	480.6106009993725	1069.792628259133	2099.32725551863	913.0745304361004	1167.595336475218	1792.78901591636	278.2528641291304	1059.581849396332	1798.657474460298	329.105746115277	1165.662902755932	1976.954346560103	860.9471358431254	1084.024049420866	1926.252836235665	433.7362884767987	1132.87351628061	1933.002785813387	462.6808934998857	1091.61627187799	2008.030213063111	443.8999127223386	1152.184553549555	2011.006049057946	474.9419717116433	1109.087684000697	2199.619026838506	478.2169746135664	1187.721314558637	2158.654221699085	462.7703999891953	1131.213170276072	2134.438050873845	565.5166987485713	1198.756676940575	2087.460850388902	538.94708062546	1155.051665193839	
567	3.773333333333333	2102.672769528997	839.3678310721895	879.6261471775604	1790.56455165434	38.32157225785839	1014.861683043941	1822.12470214643	58.15489431848078	970.0150896210407	1811.109752113259	84.47476871234711	1018.91746713197	2053.467540698661	906.8241702841635	857.5293560368126	2010.801660156098	28.19759466180482	1046.626324913862	1966.745545644082	36.05429002138158	937.8112258781268	1956.609916250547	870.4864954240023	991.3069627401424	1907.439523184931	138.4648423222106	944.9620389549746	1876.775640093632	166.8231664403878	981.7640583021702	1933.082367816368	209.1113746422682	915.4371310446229	1908.639030504976	236.5136171514448	955.1004992216028	2057.127452605995	483.5095295994134	854.6035126705284	2009.361466533055	471.6487158267453	906.3571657491325	2017.649805761524	585.8972706391413	845.7471328342407	1974.916914150116	576.4251595197001	897.5026059050219	2142.872316076188	827.2049131417081	1140.736523180363	1869.17599939761	300.3428036159386	1105.63157116207	1818.923508044094	478.8184051768037	1067.530586137857	1835.382283583478	455.3932792617159	1115.12647876131	1862.748467112105	466.6504167072584	1069.161409838987	2098.765629796949	915.7250734051061	1166.880144520476	1815.253072526027	260.4341399529732	1061.128911551907	1818.307406591615	312.2713217304869	1166.719555907502	1976.948799876521	863.9310529180869	1083.02166400305	1937.830144374469	424.3867197243918	1132.62433959168	1942.834276625408	453.8631547603594	1091.479588644849	2018.730168499531	439.6290488907065	1152.205129826832	2019.805027851396	470.9124768859334	1109.217309195464	2209.765114206665	486.8347403112867	1187.638483074363	2169.274686641452	468.2625768172737	1131.774837786746	2141.298392881395	571.537797121319	1198.278034710685	2095.303673156442	543.2785516998746	1154.70186010923	
568	3.78	2102.54635781109	841.5873817816301	878.0076530619643	1767.389968540027	42.76524432571642	1014.878772303979	1799.263408119122	61.78487421335019	969.8808534991624	1788.731140141886	88.66479093408351	1018.59635815566	2054.263162207605	909.715465425564	855.9531729971721	1987.061392403731	27.91378308618124	1047.005553858658	1943.357545850837	36.37016653204476	938.1365623051453	1956.961947930085	873.8508135800373	990.1884773090148	1886.216603423703	141.6927562165943	945.3642718904521	1855.723068711823	170.5172772295539	981.9120692952466	1913.085147859621	211.9252831092703	915.9389186641992	1888.8041313596	239.7128424171572	955.5014958915956	2044.580803902412	484.92102051028	855.8645320305745	1996.109272866983	475.3976082154405	907.3798613187432	2009.353371998463	588.8570743291648	846.1901446461245	1966.264413465087	581.596957389587	897.9945207381456	2143.328682429657	830.7278996916641	1139.26853151623	1889.845295601548	286.3350868349856	1105.984107588801	1826.196519364613	460.1319499201197	1067.094225985536	1844.658563444331	438.3817998418832	1114.710472553188	1870.845766900002	451.4325969380676	1068.538564169788	2099.078623974124	918.9018835947926	1165.938045269884	1838.996620675341	242.2528221429271	1061.982097749622	1838.597174141486	294.6322225686093	1167.252365957559	1977.259697764545	867.4638091434648	1082.053103932423	1949.326675814004	414.2714463116946	1132.222097245798	1952.440272938029	444.1816423546507	1091.199335056542	2028.977552197362	434.8405593583614	1152.071891462806	2028.006312651301	466.2621894135839	1109.207516955527	2219.082489528759	496.0618506484044	1187.361148945212	2178.903420285102	474.2710543824261	1132.321186834308	2147.760165765645	578.2992685614013	1197.714124700141	2102.661514467489	548.558660966264	1154.320545673049	
